<?xml version="1.0" standalone="yes"?>

<svg version="1.1" viewBox="0.0 0.0 250.0 227.0" fill="none" stroke="none" stroke-linecap="square" stroke-miterlimit="10" xmlns="http://www.w3.org/2000/svg" xmlns:xlink="http://www.w3.org/1999/xlink"><clipPath id="p.0"><path d="m0 0l250.0 0l0 227.0l-250.0 0l0 -227.0z" clip-rule="nonzero"></path></clipPath><g clip-path="url(#p.0)"><path fill="#000000" fill-opacity="0.0" d="m0 0l250.01312 0l0 227.7979l-250.01312 0z" fill-rule="nonzero"></path><path fill="#38761d" d="m127.76675 13.479922l0 0c19.86486 -1.6351109 36.440895 1.7914972 37.02363 7.6535425l0 0c0.27983093 2.815054 -3.2413177 5.8267345 -9.788849 8.372503c-6.547531 2.5457706 -15.585098 4.4170933 -25.124542 5.202299l0 0c-19.864853 1.6351128 -36.440895 -1.7914963 -37.02362 -7.6535416l0 0c-0.27983093 -2.815054 3.2413177 -5.8267326 9.788849 -8.372503c6.547531 -2.5457687 15.585098 -4.4170923 25.124535 -5.2023z" fill-rule="nonzero"></path><path fill="#93bd20" d="m63.58564 93.97113l0 0c19.55175 -46.044025 62.80739 -72.07497 96.614174 -58.141735l0 0c16.234589 6.690975 28.074463 21.89151 32.914963 42.257664c4.8405 20.366158 2.285141 44.229645 -7.103943 66.34077l0 0c-19.551743 46.04402 -62.80738 72.07497 -96.61417 58.141724l0 0c-33.806786 -13.933228 -45.362774 -62.554398 -25.811028 -108.59842z" fill-rule="nonzero"></path><path fill="#000000" fill-opacity="0.2046" d="m118.35767 145.15555l0 0c18.751595 -17.429588 41.750755 -23.493134 51.37008 -13.54332l0 0c4.6193695 4.778076 5.4723663 12.685425 2.3713837 21.982498c-3.100998 9.297073 -9.901978 19.222336 -18.906815 27.592316l0 0c-18.751587 17.42958 -41.750755 23.493118 -51.37008 13.543304l0 0c-9.619324 -9.949829 -2.216156 -32.145218 16.53543 -49.5748z" fill-rule="nonzero"></path><path fill="#ffffff" fill-opacity="0.3239" d="m101.21232 55.095707l0 0c11.428375 -8.166855 23.879799 -10.4794655 27.811028 -5.1653557l0 0c1.8878326 2.5519257 1.518219 6.5572853 -1.0275574 11.134945c-2.5457687 4.5776634 -7.0591507 9.352642 -12.547256 13.274502l0 0c-11.428375 8.1668625 -23.879799 10.479469 -27.81102 5.1653595l0 0c-3.931221 -5.31411 2.1464233 -16.242596 13.574806 -24.40945z" fill-rule="nonzero"></path><path fill="#000000" fill-opacity="0.0" d="m155.97278 49.467186l18.86615 -24.346458" fill-rule="nonzero"></path><path stroke="#85200c" stroke-width="8.0" stroke-linejoin="round" stroke-linecap="butt" d="m155.97278 49.467186l18.86615 -24.346458" fill-rule="nonzero"></path><path fill="#ffffff" d="m142.64706 152.17136c-1.6480865 0 -3.0263977 0.16453552 -4.1349335 0.49362183c-1.0987244 0.32287598 -1.9816284 0.7233734 -2.6487122 1.2014923c-0.65727234 0.4718933 -1.1330566 0.97795105 -1.4273682 1.5181427c-0.29429626 0.5402069 -0.44145203 1.0245209 -0.44145203 1.4529572c0 1.2853088 0.618042 2.31604 1.8541107 3.0921936c1.2360687 0.76994324 3.1490173 1.1549225 5.7388763 1.1549225c1.5009308 0 2.7860565 -0.14282227 3.8553467 -0.42843628c1.0791016 -0.2918396 1.971817 -0.67059326 2.6781464 -1.1362915c0.70632935 -0.46569824 1.2213593 -0.99658203 1.5450897 -1.5926666c0.32373047 -0.5960846 0.4855957 -1.2108002 0.4855957 -1.8441315c0 -0.68922424 -0.20111084 -1.2853088 -0.60331726 -1.7882538c-0.39241028 -0.50294495 -0.9270477 -0.9065552 -1.6039429 -1.2108002c-0.67689514 -0.31047058 -1.4715118 -0.5402069 -2.38385 -0.68922424c-0.91233826 -0.14901733 -1.8835297 -0.223526 -2.9135895 -0.223526zm-18.011253 -7.1530304c0.23544312 0 0.37278748 0.19248962 0.41202545 0.5774689c0.049049377 0.37875366 0.07357788 0.8382416 0.07357788 1.3784332c-0.26487732 1.6951294 -0.8829117 3.5268402 -1.8541031 5.495163c-0.97119904 1.9621124 -2.1189728 3.9304352 -3.4433289 5.9049683c-1.3243561 1.9745331 -2.7321014 3.8931732 -4.2232285 5.7559357c-1.4813156 1.8627777 -2.8841553 3.5392609 -4.2085114 5.02948c0 -1.7882538 0.20600891 -3.6261902 0.61803436 -5.513794c0.41201782 -1.8938141 0.9711914 -3.734848 1.6775131 -5.523102c0.70632935 -1.7882538 1.5058517 -3.4740448 2.3985596 -5.0574036c0.90252686 -1.5833435 1.8442917 -2.971115 2.8252945 -4.1632843c0.99082184 -1.1921692 1.9767303 -2.135971 2.9577332 -2.8314056c0.99082184 -0.70162964 1.9129639 -1.0524597 2.7664337 -1.0524597zm83.30207 25.035568c0.70632935 0 1.29982 0.27009583 1.7805176 0.81030273c0.49050903 0.5402069 0.73576355 1.2294312 0.73576355 2.0676727c0 0.5960846 -0.36787415 1.2108002 -1.1036377 1.8441315c-0.7357483 0.63334656 -1.6431885 1.2201233 -2.72229 1.760315c-1.0692902 0.5402069 -2.231781 0.9841614 -3.4874725 1.3318787c-1.2458801 0.34150696 -2.3985596 0.51226807 -3.4580383 0.51226807c0 -0.40982056 0.029434204 -0.9034424 0.08828735 -1.4809113c0.05885315 -0.5774536 0.18148804 -1.1735382 0.36787415 -1.7882538c0.19619751 -0.6147003 0.4757843 -1.2232056 0.8387604 -1.8255005c0.37277222 -0.60850525 0.8583832 -1.1487122 1.4568024 -1.6206055c0.60821533 -0.4781189 1.3586731 -0.8661957 2.2514038 -1.1642303c0.9025116 -0.29804993 1.9865265 -0.44706726 3.2520294 -0.44706726zm-138.48361 -22.520828c2.5309982 0 4.743164 0.33529663 6.636505 1.0058899c1.9031448 0.67059326 3.4776611 1.5895538 4.7235413 2.756897c1.2556839 1.1611176 2.192543 2.5302582 2.8105774 4.1073914c0.61803436 1.5709381 0.9270477 3.250534 0.9270477 5.038788c0 1.2294159 -0.12752533 2.5954437 -0.38259125 4.0980835c-0.24525452 1.4964142 -0.63274384 3.0549316 -1.1624908 4.675537c-0.5297394 1.6206055 -1.2017288 3.259842 -2.0159683 4.917694c-0.8044205 1.6578674 -1.751091 3.259842 -2.840004 4.8059387c-1.0889206 1.5460968 -2.3348007 2.9959412 -3.7376328 4.3495636c-1.3930283 1.3473969 -2.9381104 2.5240479 -4.635254 3.5299377c-1.6873245 1.0058899 -3.5463333 1.7975616 -5.577011 2.3750153c-2.0306816 0.5774689 -4.2232285 0.8661957 -6.5776443 0.8661957c-2.854725 0 -5.410244 -0.37565613 -7.6665535 -1.1269684c-2.246502 -0.75753784 -4.159462 -1.7975769 -5.738884 -3.1201324c-1.5696068 -1.3225708 -2.7762413 -2.890396 -3.6199074 -4.703491c-0.8338547 -1.8193054 -1.250782 -3.7814178 -1.250782 -5.8863373c0 -1.9372711 0.36787796 -3.967682 1.1036301 -6.0912476c0.7357559 -2.1235504 1.7658081 -4.209839 3.090168 -6.2588806c1.3243561 -2.0490417 2.9135857 -3.9987335 4.767685 -5.8490906c1.8540993 -1.8565521 3.899498 -3.4864655 6.1361885 -4.8897552c2.2366905 -1.4095001 4.620537 -2.5271454 7.1515274 -3.3529816c2.5309944 -0.83203125 5.15028 -1.2480469 7.857853 -1.2480469zm58.492447 -9.667755c-1.8541031 0 -3.678772 0.3539276 -5.4740143 1.0617828c-1.7952347 0.70783997 -3.516899 1.6826935 -5.1649933 2.92453c-1.6480865 1.2356415 -3.2226028 2.6885986 -4.7235413 4.3588715c-1.5009384 1.6640778 -2.893959 3.455429 -4.179077 5.3740845c-1.2753067 1.9186401 -2.4230804 3.921112 -3.4433289 6.007416c-1.010437 2.0863037 -1.8835297 4.1632843 -2.6192856 6.230957c-0.7357559 2.0676575 -1.2949295 4.0763397 -1.6775208 6.0260468c-0.38259125 1.9434814 -0.5738907 3.744156 -0.5738907 5.402008c0 2.1608124 0.28450012 4.2253723 0.8534775 6.193695c0.5787964 1.9621124 1.3734131 3.6882782 2.3838425 5.1784973c1.0202484 1.4902039 2.2121735 2.6792755 3.5757675 3.5671844c1.3734055 0.88171387 2.854721 1.3225708 4.4439545 1.3225708c1.0006256 0 2.0748215 -0.08692932 3.2226028 -0.26078796c1.1477737 -0.18006897 2.3249817 -0.41912842 3.5316162 -0.7171631c1.2066345 -0.29804993 2.4034653 -0.6364441 3.590477 -1.015213c1.1968307 -0.384964 2.354416 -0.7730408 3.472763 -1.1642303c0.22718048 -0.0826416 0.4546051 -0.16630554 0.6822586 -0.25100708l0 0c0.012611389 0.03416443 0.025535583 0.06816101 0.038780212 0.101989746c0.2844925 0.6954346 0.7504654 1.2853088 1.397934 1.7696228c0.64746094 0.48432922 1.4911346 0.8630829 2.5309906 1.1362915c1.0496826 0.2669983 2.3396912 0.40049744 3.8700714 0.40049744c1.7069397 0 3.5070953 -0.19558716 5.4004364 -0.58677673c1.9031525 -0.39117432 3.7670593 -0.8786011 5.5917206 -1.462265c1.8246765 -0.58987427 3.5218048 -1.2325287 5.0914154 -1.9279633c0.48062134 -0.21350098 0.9371643 -0.4229889 1.3696136 -0.6284485l0 0c0.16191101 0.7106781 0.4116974 1.3796539 0.74935913 2.006897c0.46107483 0.8382416 1.1624908 1.5336761 2.1042633 2.0862885c0.9417572 0.54641724 2.2661133 0.81962585 3.9730682 0.81962585c1.0300598 0 2.1238708 -0.30114746 3.2814636 -0.9034424c1.1673889 -0.60850525 2.3298798 -1.3877563 3.4874725 -2.3377686c1.1673889 -0.9500122 2.2955475 -2.011795 3.3844757 -3.1853333c1.088913 -1.1735382 2.0601044 -2.3191376 2.9135742 -3.436798c0.029434204 0.70783997 0.28448486 1.3877563 0.7651825 2.0397186c0.49050903 0.65197754 1.1674042 1.238739 2.0306854 1.760315c0.87309265 0.5215759 1.9325714 0.93759155 3.1784668 1.2480621c1.2556763 0.304245 2.678131 0.45637512 4.2673645 0.45637512c1.8835297 0 3.8602448 -0.23284912 5.930176 -0.69854736c1.2486572 -0.2795868 2.4725647 -0.616272 3.6717224 -1.0100098l0 0c0.6031189 0.8197174 1.3461151 1.5724182 2.2290344 2.258072c1.3832092 1.0679779 3.1097717 1.9186401 5.1797028 2.5519867c2.0797272 0.6333313 4.5028076 0.9500122 7.2692413 0.9500122c1.7658234 0 3.5070953 -0.124191284 5.2238617 -0.3725586c1.7265625 -0.25457764 3.3893738 -0.58987427 4.9884033 -1.0058899c1.6088562 -0.42222595 3.1392212 -0.9034424 4.59111 -1.4436493c1.4617004 -0.54019165 2.8253021 -1.0897064 4.09079 -1.6485443c2.9135895 -1.3039398 5.6653137 -2.8034668 8.255157 -4.498581l-5.6947327 -3.744156c-1.1477661 0.7078552 -2.5457 1.4591675 -4.193802 2.253952c-1.6480865 0.78855896 -3.39917 1.518158 -5.2532806 2.1887512c-1.8540955 0.67059326 -3.7621613 1.2294159 -5.724167 1.6764832c-1.9521942 0.44706726 -3.811203 0.67059326 -5.577011 0.67059326c-0.5591736 0 -1.0840149 -0.037246704 -1.5745087 -0.11177063c-0.48069763 -0.07450867 -0.94177246 -0.20489502 -1.3832245 -0.39117432c-0.44145203 -0.1862793 -0.878006 -0.44706726 -1.3096466 -0.7823639c-0.42182922 -0.33529663 -0.85346985 -0.7544098 -1.2949219 -1.25737c2.5604248 -0.447052 4.9344482 -1.0710907 7.122101 -1.8720703c2.1974487 -0.8009949 4.09079 -1.7137451 5.680023 -2.738266c1.5892334 -1.0245209 2.8302002 -2.1142426 3.7229156 -3.2691498c0.9025116 -1.1549225 1.3537903 -2.3098297 1.3537903 -3.4647522c0 -1.0617676 -0.29431152 -2.021103 -0.88290405 -2.8779602c-0.5886078 -0.85687256 -1.4077606 -1.5864563 -2.457428 -2.1887512c-1.0398712 -0.60850525 -2.2661133 -1.0804138 -3.678772 -1.4157104c-1.4126434 -0.33529663 -2.9430084 -0.50294495 -4.591095 -0.50294495c-2.0306854 0 -3.8798828 0.22973633 -5.547592 0.68922424c-1.657898 0.4532776 -3.158844 1.0679932 -4.5028076 1.8441315c-1.3341827 0.76994324 -2.5015717 1.6640778 -3.5021973 2.6823883c-1.0006256 1.0121002 -1.8344879 2.0769806 -2.5015564 3.194641c-0.6572876 1.1176605 -1.1477814 2.2601624 -1.4715118 3.4274902c-0.32373047 1.1611176 -0.4855957 2.26326 -0.4855957 3.3064117c0 0.039016724 2.1362305E-4 0.07800293 6.5612793E-4 0.1169281l0 0c-0.8618469 0.2922058 -1.7695007 0.5574646 -2.7229462 0.79582214c-1.1575928 0.28562927 -2.177826 0.42843628 -3.0607452 0.42843628c-1.2066345 0 -2.1925354 -0.10244751 -2.957718 -0.3073578c-0.7651825 -0.20489502 -1.368515 -0.47810364 -1.809967 -0.8196106c-0.44145203 -0.3477173 -0.75045776 -0.73579407 -0.9270477 -1.1642303c-0.1765747 -0.42843628 -0.26486206 -0.8661804 -0.26486206 -1.3132477c0 -0.42843628 0.049041748 -0.84135437 0.1471405 -1.238739c0.107910156 -0.40361023 0.23544312 -0.7637329 0.38259888 -1.0804138c0.14715576 -0.35391235 0.32373047 -0.6985321 0.5297394 -1.0338287c0.64746094 -0.91275024 1.2409668 -1.7044373 1.7805328 -2.3750305c0.5493469 -0.67059326 1.0202332 -1.2790985 1.4126434 -1.8255005c0.40220642 -0.55262756 0.7112274 -1.0617828 0.9270477 -1.5274658c0.22563171 -0.46569824 0.33843994 -0.9593353 0.33843994 -1.4809113c0 -0.689209 -0.51501465 -1.2511444 -1.5450745 -1.685791c-1.0300598 -0.44085693 -2.3985596 -0.6612854 -4.1055145 -0.6612854c-0.64746094 0 -1.2605896 0.055877686 -1.839386 0.16764832c-0.568985 0.11177063 -1.088913 0.25769043 -1.5597992 0.43774414c-0.47087097 0.17385864 -0.85346985 0.38186646 -1.1477661 0.6240387c-0.29431152 0.24215698 -0.4855957 0.49362183 -0.5738983 0.7544098l-11.610184 17.519318l-0.618042 0.027938843l1.7216644 -17.686966c-0.029434204 -0.48431396 -0.3188324 -0.91275024 -0.8681946 -1.2853088c-0.5395508 -0.37254333 -1.3096313 -0.55882263 -2.310257 -0.55882263c-0.14715576 0 -0.28941345 0.006210327 -0.42674255 0.018630981c-0.12753296 0.006210327 -0.26487732 0.018630981 -0.41201782 0.037246704l-5.2974396 0.53089905c-0.9417572 0.09312439 -1.5548859 0.6768036 -1.8393707 1.7509918c-0.27468872 1.0679932 -0.41203308 2.5613098 -0.41203308 4.47995c0 0.7451019 0.014724731 1.4715881 0.044143677 2.1794434c0.029434204 0.70783997 0.07847595 1.480896 0.14715576 2.3191376c0.07847595 0.8382416 0.16186523 1.7758331 0.2501526 2.8127747c0.06994629 0.8166046 0.13989258 1.748169 0.20985413 2.7947083l0 0c-0.0549469 0.030670166 -0.110198975 0.061523438 -0.16571045 0.09257507c-1.2654877 0.7078552 -2.5604248 1.3939667 -3.884781 2.0583649c-1.3243561 0.6581726 -2.6339874 1.220108 -3.9289246 1.685791c-1.2949219 0.46569824 -2.4721375 0.69854736 -3.5316162 0.69854736c-0.91233826 0 -1.5156555 -0.24526978 -1.8099518 -0.73579407c-0.29431152 -0.49674988 -0.44145203 -1.1642303 -0.44145203 -2.002472c0 -0.85687256 0.1471405 -1.8193054 0.44145203 -2.8872833c0.29429626 -1.0742035 0.6621704 -2.173233 1.1036224 -3.297104c0.44145203 -1.1300812 0.91233826 -2.2570496 1.4126587 -3.3809204c0.5003052 -1.1300812 0.9711914 -2.182541 1.4126434 -3.1573792c0.44145203 -0.98106384 0.8093262 -1.8565674 1.1036377 -2.6265106c0.29429626 -0.7761383 0.44145203 -1.3691254 0.44145203 -1.7789307c0 -0.48432922 -0.22073364 -0.8692932 -0.66218567 -1.1549225c-0.44145203 -0.29182434 -1.2802124 -0.43774414 -2.5162811 -0.43774414c-0.67689514 0 -1.4371643 0.05278015 -2.280838 0.15834045c-0.83384705 0.09933472 -1.6431732 0.25767517 -2.4279785 0.4750061c-0.7749939 0.21110535 -1.4715118 0.4905243 -2.0895538 0.8382416c-0.61802673 0.34150696 -1.0300446 0.7544098 -1.2360535 1.238739c-0.52975464 1.3970642 -1.1428833 2.92453 -1.839386 4.5823975c-0.68670654 1.6578674 -1.3390808 3.32193 -1.9571152 4.992218c-0.4736023 1.2751923 -0.89247894 2.519394 -1.2566376 3.732605l0 0c-1.0025024 0.46754456 -1.9815598 0.90293884 -2.9371567 1.3061676c-0.7946167 0.33529663 -1.61866 0.6674957 -2.4721375 0.99658203c-0.85346985 0.32287598 -1.6873245 0.6116028 -2.5015564 0.8661804c-0.8044281 0.24836731 -1.5696106 0.44706726 -2.295555 0.5960846c-0.7161331 0.1490326 -1.3537903 0.22354126 -1.9129639 0.22354126c-0.23543549 0 -0.4855957 -0.1055603 -0.7504654 -0.3166809c-0.2648697 -0.21731567 -0.5150299 -0.5060425 -0.750473 -0.8661804c-0.23543549 -0.36634827 -0.4365387 -0.77615356 -0.60331726 -1.2294312c-0.15695953 -0.45947266 -0.23544312 -0.9313812 -0.23544312 -1.4156952l0 -0.39117432c0.08829498 -0.3725586 0.20601654 -0.75442505 0.35316467 -1.1456146c0.14714813 -0.39117432 0.2943039 -0.7575226 0.44145203 -1.0990295c0.14714813 -0.3477173 0.2992096 -0.67059326 0.45616913 -0.9686279c0.16677094 -0.29804993 0.32373047 -0.5402069 0.4708786 -0.7264862c1.3537903 -1.6764832 2.8007736 -3.393341 4.34095 -5.150543c1.5499954 -1.7634125 3.0901718 -3.5516663 4.620537 -5.3647614c1.530365 -1.8193054 3.0018768 -3.6510162 4.414528 -5.495163c1.4126511 -1.8441315 2.6536179 -3.6820679 3.722908 -5.5137787c1.0791168 -1.8379364 1.9325867 -3.663437 2.5604248 -5.476532c0.6376648 -1.8193054 0.95648193 -3.6044464 0.95648193 -5.3554535c0 -0.7823639 -0.098098755 -1.5491943 -0.29429626 -2.3005066c-0.18638611 -0.75753784 -0.5150299 -1.4343414 -0.98591614 -2.030426c-0.47088623 -0.5960846 -1.1183472 -1.0741882 -1.9423828 -1.4343262c-0.8240509 -0.36634827 -1.8688202 -0.5495148 -3.1343155 -0.5495148zm-60.21411 3.1853333c-3.296173 0 -6.381439 0.27630615 -9.255783 0.8289337c-2.8645363 0.546402 -5.5426826 1.3101349 -8.034435 2.2911987c-2.4819412 0.97483826 -4.7529716 2.1390686 -6.81308 3.4926758c-2.060112 1.3474121 -3.9240227 2.8220978 -5.591732 4.4240723c-1.657898 1.6019745 -3.1146927 3.303299 -4.3703804 5.1039734c-1.2458763 1.7944641 -2.2906456 3.6292877 -3.1343098 5.504471c-0.8338547 1.8689728 -1.4567928 3.744156 -1.8688164 5.6255493c-0.41202164 1.8813934 -0.61803246 3.716217 -0.61803246 5.504471c0 3.3716125 0.66217804 6.4700165 1.986536 9.295212c1.3243561 2.8189697 3.222601 5.249878 5.6947346 7.2927246c2.4721336 2.036621 5.464203 3.6230774 8.9762 4.7593536c3.5218086 1.1362915 7.4752617 1.7044373 11.860355 1.7044373c4.179081 0 8.05405 -0.52778625 11.624912 -1.5833435c3.5806656 -1.0493622 6.827797 -2.4681702 9.741379 -4.256424c2.9135895 -1.7882538 5.4887314 -3.8652344 7.725418 -6.230957c2.2366943 -2.3657074 4.105507 -4.855606 5.6064453 -7.469681c1.5009384 -2.620285 2.6389084 -5.2840424 3.4139023 -7.991272c0.7848053 -2.7134247 1.177208 -5.3181915 1.177208 -7.8143005c0 -3.0176697 -0.64255524 -5.777664 -1.927681 -8.2799835c-1.2752991 -2.5085297 -3.114685 -4.6662292 -5.5181503 -6.473114c-2.3936539 -1.8068848 -5.33667 -3.213272 -8.829048 -4.219162c-3.4825745 -1.0058899 -7.431114 -1.5088348 -11.845642 -1.5088348z" fill-rule="evenodd"></path><path stroke="#000000" stroke-width="2.0" stroke-linejoin="round" stroke-linecap="butt" d="m142.64706 152.17136c-1.6480865 0 -3.0263977 0.16453552 -4.1349335 0.49362183c-1.0987244 0.32287598 -1.9816284 0.7233734 -2.6487122 1.2014923c-0.65727234 0.4718933 -1.1330566 0.97795105 -1.4273682 1.5181427c-0.29429626 0.5402069 -0.44145203 1.0245209 -0.44145203 1.4529572c0 1.2853088 0.618042 2.31604 1.8541107 3.0921936c1.2360687 0.76994324 3.1490173 1.1549225 5.7388763 1.1549225c1.5009308 0 2.7860565 -0.14282227 3.8553467 -0.42843628c1.0791016 -0.2918396 1.971817 -0.67059326 2.6781464 -1.1362915c0.70632935 -0.46569824 1.2213593 -0.99658203 1.5450897 -1.5926666c0.32373047 -0.5960846 0.4855957 -1.2108002 0.4855957 -1.8441315c0 -0.68922424 -0.20111084 -1.2853088 -0.60331726 -1.7882538c-0.39241028 -0.50294495 -0.9270477 -0.9065552 -1.6039429 -1.2108002c-0.67689514 -0.31047058 -1.4715118 -0.5402069 -2.38385 -0.68922424c-0.91233826 -0.14901733 -1.8835297 -0.223526 -2.9135895 -0.223526zm-18.011253 -7.1530304c0.23544312 0 0.37278748 0.19248962 0.41202545 0.5774689c0.049049377 0.37875366 0.07357788 0.8382416 0.07357788 1.3784332c-0.26487732 1.6951294 -0.8829117 3.5268402 -1.8541031 5.495163c-0.97119904 1.9621124 -2.1189728 3.9304352 -3.4433289 5.9049683c-1.3243561 1.9745331 -2.7321014 3.8931732 -4.2232285 5.7559357c-1.4813156 1.8627777 -2.8841553 3.5392609 -4.2085114 5.02948c0 -1.7882538 0.20600891 -3.6261902 0.61803436 -5.513794c0.41201782 -1.8938141 0.9711914 -3.734848 1.6775131 -5.523102c0.70632935 -1.7882538 1.5058517 -3.4740448 2.3985596 -5.0574036c0.90252686 -1.5833435 1.8442917 -2.971115 2.8252945 -4.1632843c0.99082184 -1.1921692 1.9767303 -2.135971 2.9577332 -2.8314056c0.99082184 -0.70162964 1.9129639 -1.0524597 2.7664337 -1.0524597zm83.30207 25.035568c0.70632935 0 1.29982 0.27009583 1.7805176 0.81030273c0.49050903 0.5402069 0.73576355 1.2294312 0.73576355 2.0676727c0 0.5960846 -0.36787415 1.2108002 -1.1036377 1.8441315c-0.7357483 0.63334656 -1.6431885 1.2201233 -2.72229 1.760315c-1.0692902 0.5402069 -2.231781 0.9841614 -3.4874725 1.3318787c-1.2458801 0.34150696 -2.3985596 0.51226807 -3.4580383 0.51226807c0 -0.40982056 0.029434204 -0.9034424 0.08828735 -1.4809113c0.05885315 -0.5774536 0.18148804 -1.1735382 0.36787415 -1.7882538c0.19619751 -0.6147003 0.4757843 -1.2232056 0.8387604 -1.8255005c0.37277222 -0.60850525 0.8583832 -1.1487122 1.4568024 -1.6206055c0.60821533 -0.4781189 1.3586731 -0.8661957 2.2514038 -1.1642303c0.9025116 -0.29804993 1.9865265 -0.44706726 3.2520294 -0.44706726zm-138.48361 -22.520828c2.5309982 0 4.743164 0.33529663 6.636505 1.0058899c1.9031448 0.67059326 3.4776611 1.5895538 4.7235413 2.756897c1.2556839 1.1611176 2.192543 2.5302582 2.8105774 4.1073914c0.61803436 1.5709381 0.9270477 3.250534 0.9270477 5.038788c0 1.2294159 -0.12752533 2.5954437 -0.38259125 4.0980835c-0.24525452 1.4964142 -0.63274384 3.0549316 -1.1624908 4.675537c-0.5297394 1.6206055 -1.2017288 3.259842 -2.0159683 4.917694c-0.8044205 1.6578674 -1.751091 3.259842 -2.840004 4.8059387c-1.0889206 1.5460968 -2.3348007 2.9959412 -3.7376328 4.3495636c-1.3930283 1.3473969 -2.9381104 2.5240479 -4.635254 3.5299377c-1.6873245 1.0058899 -3.5463333 1.7975616 -5.577011 2.3750153c-2.0306816 0.5774689 -4.2232285 0.8661957 -6.5776443 0.8661957c-2.854725 0 -5.410244 -0.37565613 -7.6665535 -1.1269684c-2.246502 -0.75753784 -4.159462 -1.7975769 -5.738884 -3.1201324c-1.5696068 -1.3225708 -2.7762413 -2.890396 -3.6199074 -4.703491c-0.8338547 -1.8193054 -1.250782 -3.7814178 -1.250782 -5.8863373c0 -1.9372711 0.36787796 -3.967682 1.1036301 -6.0912476c0.7357559 -2.1235504 1.7658081 -4.209839 3.090168 -6.2588806c1.3243561 -2.0490417 2.9135857 -3.9987335 4.767685 -5.8490906c1.8540993 -1.8565521 3.899498 -3.4864655 6.1361885 -4.8897552c2.2366905 -1.4095001 4.620537 -2.5271454 7.1515274 -3.3529816c2.5309944 -0.83203125 5.15028 -1.2480469 7.857853 -1.2480469zm58.492447 -9.667755c-1.8541031 0 -3.678772 0.3539276 -5.4740143 1.0617828c-1.7952347 0.70783997 -3.516899 1.6826935 -5.1649933 2.92453c-1.6480865 1.2356415 -3.2226028 2.6885986 -4.7235413 4.3588715c-1.5009384 1.6640778 -2.893959 3.455429 -4.179077 5.3740845c-1.2753067 1.9186401 -2.4230804 3.921112 -3.4433289 6.007416c-1.010437 2.0863037 -1.8835297 4.1632843 -2.6192856 6.230957c-0.7357559 2.0676575 -1.2949295 4.0763397 -1.6775208 6.0260468c-0.38259125 1.9434814 -0.5738907 3.744156 -0.5738907 5.402008c0 2.1608124 0.28450012 4.2253723 0.8534775 6.193695c0.5787964 1.9621124 1.3734131 3.6882782 2.3838425 5.1784973c1.0202484 1.4902039 2.2121735 2.6792755 3.5757675 3.5671844c1.3734055 0.88171387 2.854721 1.3225708 4.4439545 1.3225708c1.0006256 0 2.0748215 -0.08692932 3.2226028 -0.26078796c1.1477737 -0.18006897 2.3249817 -0.41912842 3.5316162 -0.7171631c1.2066345 -0.29804993 2.4034653 -0.6364441 3.590477 -1.015213c1.1968307 -0.384964 2.354416 -0.7730408 3.472763 -1.1642303c0.22718048 -0.0826416 0.4546051 -0.16630554 0.6822586 -0.25100708l0 0c0.012611389 0.03416443 0.025535583 0.06816101 0.038780212 0.101989746c0.2844925 0.6954346 0.7504654 1.2853088 1.397934 1.7696228c0.64746094 0.48432922 1.4911346 0.8630829 2.5309906 1.1362915c1.0496826 0.2669983 2.3396912 0.40049744 3.8700714 0.40049744c1.7069397 0 3.5070953 -0.19558716 5.4004364 -0.58677673c1.9031525 -0.39117432 3.7670593 -0.8786011 5.5917206 -1.462265c1.8246765 -0.58987427 3.5218048 -1.2325287 5.0914154 -1.9279633c0.48062134 -0.21350098 0.9371643 -0.4229889 1.3696136 -0.6284485l0 0c0.16191101 0.7106781 0.4116974 1.3796539 0.74935913 2.006897c0.46107483 0.8382416 1.1624908 1.5336761 2.1042633 2.0862885c0.9417572 0.54641724 2.2661133 0.81962585 3.9730682 0.81962585c1.0300598 0 2.1238708 -0.30114746 3.2814636 -0.9034424c1.1673889 -0.60850525 2.3298798 -1.3877563 3.4874725 -2.3377686c1.1673889 -0.9500122 2.2955475 -2.011795 3.3844757 -3.1853333c1.088913 -1.1735382 2.0601044 -2.3191376 2.9135742 -3.436798c0.029434204 0.70783997 0.28448486 1.3877563 0.7651825 2.0397186c0.49050903 0.65197754 1.1674042 1.238739 2.0306854 1.760315c0.87309265 0.5215759 1.9325714 0.93759155 3.1784668 1.2480621c1.2556763 0.304245 2.678131 0.45637512 4.2673645 0.45637512c1.8835297 0 3.8602448 -0.23284912 5.930176 -0.69854736c1.2486572 -0.2795868 2.4725647 -0.616272 3.6717224 -1.0100098l0 0c0.6031189 0.8197174 1.3461151 1.5724182 2.2290344 2.258072c1.3832092 1.0679779 3.1097717 1.9186401 5.1797028 2.5519867c2.0797272 0.6333313 4.5028076 0.9500122 7.2692413 0.9500122c1.7658234 0 3.5070953 -0.124191284 5.2238617 -0.3725586c1.7265625 -0.25457764 3.3893738 -0.58987427 4.9884033 -1.0058899c1.6088562 -0.42222595 3.1392212 -0.9034424 4.59111 -1.4436493c1.4617004 -0.54019165 2.8253021 -1.0897064 4.09079 -1.6485443c2.9135895 -1.3039398 5.6653137 -2.8034668 8.255157 -4.498581l-5.6947327 -3.744156c-1.1477661 0.7078552 -2.5457 1.4591675 -4.193802 2.253952c-1.6480865 0.78855896 -3.39917 1.518158 -5.2532806 2.1887512c-1.8540955 0.67059326 -3.7621613 1.2294159 -5.724167 1.6764832c-1.9521942 0.44706726 -3.811203 0.67059326 -5.577011 0.67059326c-0.5591736 0 -1.0840149 -0.037246704 -1.5745087 -0.11177063c-0.48069763 -0.07450867 -0.94177246 -0.20489502 -1.3832245 -0.39117432c-0.44145203 -0.1862793 -0.878006 -0.44706726 -1.3096466 -0.7823639c-0.42182922 -0.33529663 -0.85346985 -0.7544098 -1.2949219 -1.25737c2.5604248 -0.447052 4.9344482 -1.0710907 7.122101 -1.8720703c2.1974487 -0.8009949 4.09079 -1.7137451 5.680023 -2.738266c1.5892334 -1.0245209 2.8302002 -2.1142426 3.7229156 -3.2691498c0.9025116 -1.1549225 1.3537903 -2.3098297 1.3537903 -3.4647522c0 -1.0617676 -0.29431152 -2.021103 -0.88290405 -2.8779602c-0.5886078 -0.85687256 -1.4077606 -1.5864563 -2.457428 -2.1887512c-1.0398712 -0.60850525 -2.2661133 -1.0804138 -3.678772 -1.4157104c-1.4126434 -0.33529663 -2.9430084 -0.50294495 -4.591095 -0.50294495c-2.0306854 0 -3.8798828 0.22973633 -5.547592 0.68922424c-1.657898 0.4532776 -3.158844 1.0679932 -4.5028076 1.8441315c-1.3341827 0.76994324 -2.5015717 1.6640778 -3.5021973 2.6823883c-1.0006256 1.0121002 -1.8344879 2.0769806 -2.5015564 3.194641c-0.6572876 1.1176605 -1.1477814 2.2601624 -1.4715118 3.4274902c-0.32373047 1.1611176 -0.4855957 2.26326 -0.4855957 3.3064117c0 0.039016724 2.1362305E-4 0.07800293 6.5612793E-4 0.1169281l0 0c-0.8618469 0.2922058 -1.7695007 0.5574646 -2.7229462 0.79582214c-1.1575928 0.28562927 -2.177826 0.42843628 -3.0607452 0.42843628c-1.2066345 0 -2.1925354 -0.10244751 -2.957718 -0.3073578c-0.7651825 -0.20489502 -1.368515 -0.47810364 -1.809967 -0.8196106c-0.44145203 -0.3477173 -0.75045776 -0.73579407 -0.9270477 -1.1642303c-0.1765747 -0.42843628 -0.26486206 -0.8661804 -0.26486206 -1.3132477c0 -0.42843628 0.049041748 -0.84135437 0.1471405 -1.238739c0.107910156 -0.40361023 0.23544312 -0.7637329 0.38259888 -1.0804138c0.14715576 -0.35391235 0.32373047 -0.6985321 0.5297394 -1.0338287c0.64746094 -0.91275024 1.2409668 -1.7044373 1.7805328 -2.3750305c0.5493469 -0.67059326 1.0202332 -1.2790985 1.4126434 -1.8255005c0.40220642 -0.55262756 0.7112274 -1.0617828 0.9270477 -1.5274658c0.22563171 -0.46569824 0.33843994 -0.9593353 0.33843994 -1.4809113c0 -0.689209 -0.51501465 -1.2511444 -1.5450745 -1.685791c-1.0300598 -0.44085693 -2.3985596 -0.6612854 -4.1055145 -0.6612854c-0.64746094 0 -1.2605896 0.055877686 -1.839386 0.16764832c-0.568985 0.11177063 -1.088913 0.25769043 -1.5597992 0.43774414c-0.47087097 0.17385864 -0.85346985 0.38186646 -1.1477661 0.6240387c-0.29431152 0.24215698 -0.4855957 0.49362183 -0.5738983 0.7544098l-11.610184 17.519318l-0.618042 0.027938843l1.7216644 -17.686966c-0.029434204 -0.48431396 -0.3188324 -0.91275024 -0.8681946 -1.2853088c-0.5395508 -0.37254333 -1.3096313 -0.55882263 -2.310257 -0.55882263c-0.14715576 0 -0.28941345 0.006210327 -0.42674255 0.018630981c-0.12753296 0.006210327 -0.26487732 0.018630981 -0.41201782 0.037246704l-5.2974396 0.53089905c-0.9417572 0.09312439 -1.5548859 0.6768036 -1.8393707 1.7509918c-0.27468872 1.0679932 -0.41203308 2.5613098 -0.41203308 4.47995c0 0.7451019 0.014724731 1.4715881 0.044143677 2.1794434c0.029434204 0.70783997 0.07847595 1.480896 0.14715576 2.3191376c0.07847595 0.8382416 0.16186523 1.7758331 0.2501526 2.8127747c0.06994629 0.8166046 0.13989258 1.748169 0.20985413 2.7947083l0 0c-0.0549469 0.030670166 -0.110198975 0.061523438 -0.16571045 0.09257507c-1.2654877 0.7078552 -2.5604248 1.3939667 -3.884781 2.0583649c-1.3243561 0.6581726 -2.6339874 1.220108 -3.9289246 1.685791c-1.2949219 0.46569824 -2.4721375 0.69854736 -3.5316162 0.69854736c-0.91233826 0 -1.5156555 -0.24526978 -1.8099518 -0.73579407c-0.29431152 -0.49674988 -0.44145203 -1.1642303 -0.44145203 -2.002472c0 -0.85687256 0.1471405 -1.8193054 0.44145203 -2.8872833c0.29429626 -1.0742035 0.6621704 -2.173233 1.1036224 -3.297104c0.44145203 -1.1300812 0.91233826 -2.2570496 1.4126587 -3.3809204c0.5003052 -1.1300812 0.9711914 -2.182541 1.4126434 -3.1573792c0.44145203 -0.98106384 0.8093262 -1.8565674 1.1036377 -2.6265106c0.29429626 -0.7761383 0.44145203 -1.3691254 0.44145203 -1.7789307c0 -0.48432922 -0.22073364 -0.8692932 -0.66218567 -1.1549225c-0.44145203 -0.29182434 -1.2802124 -0.43774414 -2.5162811 -0.43774414c-0.67689514 0 -1.4371643 0.05278015 -2.280838 0.15834045c-0.83384705 0.09933472 -1.6431732 0.25767517 -2.4279785 0.4750061c-0.7749939 0.21110535 -1.4715118 0.4905243 -2.0895538 0.8382416c-0.61802673 0.34150696 -1.0300446 0.7544098 -1.2360535 1.238739c-0.52975464 1.3970642 -1.1428833 2.92453 -1.839386 4.5823975c-0.68670654 1.6578674 -1.3390808 3.32193 -1.9571152 4.992218c-0.4736023 1.2751923 -0.89247894 2.519394 -1.2566376 3.732605l0 0c-1.0025024 0.46754456 -1.9815598 0.90293884 -2.9371567 1.3061676c-0.7946167 0.33529663 -1.61866 0.6674957 -2.4721375 0.99658203c-0.85346985 0.32287598 -1.6873245 0.6116028 -2.5015564 0.8661804c-0.8044281 0.24836731 -1.5696106 0.44706726 -2.295555 0.5960846c-0.7161331 0.1490326 -1.3537903 0.22354126 -1.9129639 0.22354126c-0.23543549 0 -0.4855957 -0.1055603 -0.7504654 -0.3166809c-0.2648697 -0.21731567 -0.5150299 -0.5060425 -0.750473 -0.8661804c-0.23543549 -0.36634827 -0.4365387 -0.77615356 -0.60331726 -1.2294312c-0.15695953 -0.45947266 -0.23544312 -0.9313812 -0.23544312 -1.4156952l0 -0.39117432c0.08829498 -0.3725586 0.20601654 -0.75442505 0.35316467 -1.1456146c0.14714813 -0.39117432 0.2943039 -0.7575226 0.44145203 -1.0990295c0.14714813 -0.3477173 0.2992096 -0.67059326 0.45616913 -0.9686279c0.16677094 -0.29804993 0.32373047 -0.5402069 0.4708786 -0.7264862c1.3537903 -1.6764832 2.8007736 -3.393341 4.34095 -5.150543c1.5499954 -1.7634125 3.0901718 -3.5516663 4.620537 -5.3647614c1.530365 -1.8193054 3.0018768 -3.6510162 4.414528 -5.495163c1.4126511 -1.8441315 2.6536179 -3.6820679 3.722908 -5.5137787c1.0791168 -1.8379364 1.9325867 -3.663437 2.5604248 -5.476532c0.6376648 -1.8193054 0.95648193 -3.6044464 0.95648193 -5.3554535c0 -0.7823639 -0.098098755 -1.5491943 -0.29429626 -2.3005066c-0.18638611 -0.75753784 -0.5150299 -1.4343414 -0.98591614 -2.030426c-0.47088623 -0.5960846 -1.1183472 -1.0741882 -1.9423828 -1.4343262c-0.8240509 -0.36634827 -1.8688202 -0.5495148 -3.1343155 -0.5495148zm-60.21411 3.1853333c-3.296173 0 -6.381439 0.27630615 -9.255783 0.8289337c-2.8645363 0.546402 -5.5426826 1.3101349 -8.034435 2.2911987c-2.4819412 0.97483826 -4.7529716 2.1390686 -6.81308 3.4926758c-2.060112 1.3474121 -3.9240227 2.8220978 -5.591732 4.4240723c-1.657898 1.6019745 -3.1146927 3.303299 -4.3703804 5.1039734c-1.2458763 1.7944641 -2.2906456 3.6292877 -3.1343098 5.504471c-0.8338547 1.8689728 -1.4567928 3.744156 -1.8688164 5.6255493c-0.41202164 1.8813934 -0.61803246 3.716217 -0.61803246 5.504471c0 3.3716125 0.66217804 6.4700165 1.986536 9.295212c1.3243561 2.8189697 3.222601 5.249878 5.6947346 7.2927246c2.4721336 2.036621 5.464203 3.6230774 8.9762 4.7593536c3.5218086 1.1362915 7.4752617 1.7044373 11.860355 1.7044373c4.179081 0 8.05405 -0.52778625 11.624912 -1.5833435c3.5806656 -1.0493622 6.827797 -2.4681702 9.741379 -4.256424c2.9135895 -1.7882538 5.4887314 -3.8652344 7.725418 -6.230957c2.2366943 -2.3657074 4.105507 -4.855606 5.6064453 -7.469681c1.5009384 -2.620285 2.6389084 -5.2840424 3.4139023 -7.991272c0.7848053 -2.7134247 1.177208 -5.3181915 1.177208 -7.8143005c0 -3.0176697 -0.64255524 -5.777664 -1.927681 -8.2799835c-1.2752991 -2.5085297 -3.114685 -4.6662292 -5.5181503 -6.473114c-2.3936539 -1.8068848 -5.33667 -3.213272 -8.829048 -4.219162c-3.4825745 -1.0058899 -7.431114 -1.5088348 -11.845642 -1.5088348z" fill-rule="evenodd"></path><path fill="#000000" fill-opacity="0.0" d="m11.513066 86.96427l217.79529 -25.98425l5.7322693 48.598423l-217.79527 25.984253z" fill-rule="nonzero"></path><path stroke="#000000" stroke-width="4.0" stroke-linejoin="round" stroke-linecap="butt" d="m11.513066 86.96427l217.79529 -25.98425l5.7322693 48.598423l-217.79527 25.984253z" fill-rule="nonzero"></path><path fill="#000000" d="m46.621216 121.918945l-13.699718 1.6344604l-0.9703617 -3.4247894l2.5132542 -0.83486176l-2.3098564 -19.583015l-2.5308552 0.018699646l-0.41548157 -3.522461l18.10597 -2.160141l1.7193184 8.040436l-3.0254173 0.36094666l-2.175209 -3.7688522l-6.4231987 0.7663269l0.83462524 7.0759583l6.035324 -0.7200546l0.49235535 4.1741943l-6.035324 0.720047l0.9224777 7.820793l6.871643 0.23447418l0.0904541 3.167839zm28.54876 -3.4060364l-0.35142517 -2.9793472l3.0817337 -1.2173996l-1.998436 -4.67115l-7.788513 0.9292145l-0.9155884 5.1761703l3.5659103 0.21973419l0.3569107 3.0259018l-9.495163 1.1328278l-0.8780556 -3.0424042l2.1034164 -0.9748001l5.084011 -24.524979l4.9182434 -0.58677673l10.772293 22.633232l1.9149551 0.4953766l-0.037322998 3.151619l-10.33297 1.2327805zm-6.3078003 -12.260956l4.7941284 -0.5719681l-3.1487808 -8.688156l-1.6453476 9.260124zm40.201866 4.1416245q4.995819 -0.5960312 4.2929764 -6.5547256l-1.6015244 -13.577766l-2.5865555 -0.053329468l-0.41181946 -3.4914246l9.060745 -1.0810013l0.42646027 3.6155624l-2.2823563 0.7915802l1.5832214 13.422592q0.54909515 4.6552277 -1.4770203 7.619255q-2.0279465 2.9485016 -6.51178 3.4834518q-5.7715683 0.68857574 -8.532257 -1.6414032q-2.600914 -2.1759567 -3.1829605 -7.110504l-1.612503 -13.670868l-2.69516 -0.040374756l-0.41548157 -3.522461l10.674301 -1.2735062l0.41181946 3.4914246l-2.756958 0.7695236l1.5978622 13.54673q0.35142517 2.9793472 1.6889267 4.314682q1.3511887 1.3179626 4.330063 0.96256256zm31.073624 -27.421127l1.0315399 3.543373l-2.9148102 0.89850616l2.249466 19.070938l6.7024536 -0.7996445l1.0108643 -4.101761l3.134018 -0.373909l0.117614746 8.200058l-17.702576 2.1120224l-0.97036743 -3.4247894l2.51326 -0.83486176l-2.3098602 -19.583008l-2.5308533 0.018699646l-0.41548157 -3.522461l10.084732 -1.2031631zm26.576996 21.392807l4.458908 -1.4131851l-2.2640991 -19.195076l-4.4838257 0.53495026l-1.2380981 4.176079l-3.0564423 0.36465454l-0.21437073 -8.219994l22.046783 -2.63031l1.8242493 7.9964523l-3.009903 0.3590927l-2.2180786 -3.7322617l-4.5303802 0.5404968l2.2640991 19.195076l4.710449 0.31922913l-0.012664795 3.2273483l-13.513535 1.6122437l-0.76309204 -3.1347961zm35.632385 -28.81475l0.95928955 3.0641785l-2.7578278 0.89551544l5.945923 7.992523l3.4104767 -9.23468l-2.4715881 -0.14572906l-0.36972046 -3.1345215l8.781479 -1.0476837l0.41181946 3.4914246l-1.7019501 0.64365387l-5.466934 14.342392l0.7266388 6.1604233l4.669388 0.37133026l-0.014587402 2.944336l-13.544556 1.6159439l-0.7456665 -2.8536377l4.4223785 -1.4560242l-0.73028564 -6.1914597l-9.175537 -12.563988l-1.6301117 -0.21465302l-0.41548157 -3.5224533l9.696854 -1.1568909z" fill-rule="nonzero"></path><path fill="#000000" fill-opacity="0.0" d="m12.245687 86.231995l217.79527 -25.984257l5.7322845 48.598423l-217.79527 25.984253z" fill-rule="nonzero"></path><path stroke="#cc0000" stroke-width="4.0" stroke-linejoin="round" stroke-linecap="butt" d="m12.245687 86.231995l217.79527 -25.984257l5.7322845 48.598423l-217.79527 25.984253z" fill-rule="nonzero"></path><path fill="#cc0000" d="m47.353836 121.18666l-13.699722 1.6344604l-0.9703598 -3.4247894l2.513256 -0.83486176l-2.3098564 -19.583015l-2.5308552 0.018699646l-0.41548157 -3.5224533l18.10597 -2.1601486l1.7193184 8.040436l-3.0254173 0.36095428l-2.175209 -3.7688522l-6.4231987 0.7663193l0.83462524 7.0759583l6.035324 -0.7200546l0.49235153 4.1741943l-6.035324 0.720047l0.92248154 7.820793l6.871643 0.23447418l0.0904541 3.167839zm28.54876 -3.4060287l-0.35142517 -2.9793549l3.0817337 -1.2173996l-1.998436 -4.67115l-7.788513 0.9292145l-0.9155884 5.1761703l3.5659103 0.21973419l0.3569107 3.0259018l-9.495163 1.1328278l-0.8780594 -3.0424042l2.1034164 -0.9748001l5.084015 -24.524979l4.9182434 -0.58677673l10.772293 22.633232l1.9149551 0.49538422l-0.037322998 3.1516113l-10.33297 1.2327881zm-6.3078003 -12.260963l4.7941284 -0.5719681l-3.1487808 -8.688156l-1.6453476 9.260124zm40.20186 4.1416245q4.9958267 -0.5960312 4.292984 -6.5547256l-1.6015244 -13.577766l-2.5865555 -0.053329468l-0.41181946 -3.4914246l9.060745 -1.0810013l0.42646027 3.6155624l-2.2823563 0.7915802l1.5832214 13.422592q0.54909515 4.6552277 -1.4770279 7.619255q-2.0279465 2.9485016 -6.511772 3.4834518q-5.7715683 0.6885834 -8.532257 -1.6414032q-2.6009216 -2.1759567 -3.1829605 -7.110504l-1.612503 -13.670868l-2.69516 -0.040374756l-0.41548157 -3.5224533l10.674301 -1.2735062l0.41181946 3.4914246l-2.756958 0.7695236l1.5978622 13.546722q0.35141754 2.9793472 1.6889267 4.314682q1.351181 1.3179626 4.330055 0.96256256zm31.073631 -27.421127l1.0315399 3.543373l-2.9148102 0.89850616l2.2494507 19.070938l6.702469 -0.7996445l1.0108643 -4.101761l3.134018 -0.373909l0.117614746 8.200058l-17.702576 2.1120224l-0.97036743 -3.4247818l2.51326 -0.8348694l-2.3098602 -19.583008l-2.5308533 0.018699646l-0.41548157 -3.522461l10.084732 -1.2031631zm26.576996 21.392807l4.458908 -1.4131775l-2.2640991 -19.195076l-4.4838257 0.5349426l-1.2380981 4.176079l-3.0564423 0.36465454l-0.21437073 -8.219994l22.046783 -2.63031l1.8242493 7.9964523l-3.009903 0.35910034l-2.2180786 -3.7322693l-4.5303802 0.54050446l2.2640991 19.195076l4.710449 0.3192215l-0.012664795 3.2273483l-13.513535 1.6122437l-0.76309204 -3.1347961zm35.632385 -28.81475l0.95928955 3.0641785l-2.7578278 0.89551544l5.945923 7.992523l3.4104767 -9.23468l-2.4715881 -0.14572906l-0.36972046 -3.1345215l8.781479 -1.0476837l0.41181946 3.4914246l-1.7019501 0.64365387l-5.466934 14.342392l0.7266388 6.1604233l4.669388 0.37133026l-0.014587402 2.944336l-13.544556 1.6159439l-0.7456665 -2.85363l4.4223785 -1.4560318l-0.73028564 -6.1914597l-9.175537 -12.563988l-1.6301117 -0.21464539l-0.41548157 -3.522461l9.696854 -1.1568909z" fill-rule="nonzero"></path><path fill="#38761d" d="m181.48883 54.313828l0 0c-4.3052216 -11.15876 -4.9750214 -21.346928 -1.4960632 -22.755905l0 0c1.6706543 -0.67661476 4.094162 0.8031883 6.7373962 4.1138687c2.6432343 3.3106804 5.2896576 8.181049 7.357086 13.539673l0 0c4.3052216 11.158764 4.9750214 21.346931 1.4960632 22.755905l0 0c-1.6706543 0.6766205 -4.094162 -0.8031845 -6.7373962 -4.1138687c-2.6432343 -3.3106766 -5.2896576 -8.181046 -7.357086 -13.539673z" fill-rule="nonzero"></path></g></svg>

